<?xml version="1.0" encoding="utf-8"?>
<!-- Generator: Adobe Illustrator 21.1.0, SVG Export Plug-In . SVG Version: 6.00 Build 0)  -->
<svg version="1.1" id="Layer_1" xmlns="http://www.w3.org/2000/svg" xmlns:xlink="http://www.w3.org/1999/xlink" x="0px" y="0px"
	 viewBox="0 0 600 360.8" style="enable-background:new 0 0 600 360.8;" xml:space="preserve">
<style type="text/css">
	.st0{opacity:0.1;}
	.st1{opacity:0.8;fill:url(#SVGID_1_);enable-background:new    ;}
	.st2{opacity:0.1;fill:#42E8E0;enable-background:new    ;}
</style>
<title>Asset 1</title>
<g id="Layer_2" class="st0">
	<g id="Ñëîé_1">

			<radialGradient id="SVGID_1_" cx="87" cy="307.59" r="439.34" gradientTransform="matrix(-1 0 0 -1 700 362)" gradientUnits="userSpaceOnUse">
			<stop  offset="0" style="stop-color:#FF2C9C"/>
			<stop  offset="3.000000e-02" style="stop-color:#F62F9F"/>
			<stop  offset="0.2" style="stop-color:#C63EB0"/>
			<stop  offset="0.37" style="stop-color:#9E4BBE"/>
			<stop  offset="0.54" style="stop-color:#7F54C9"/>
			<stop  offset="0.7" style="stop-color:#695BD1"/>
			<stop  offset="0.86" style="stop-color:#5C60D5"/>
			<stop  offset="1" style="stop-color:#5761D7"/>
		</radialGradient>
		<path class="st1" d="M583.4,0.5c-1.4-0.7-3.1-0.7-4.5,0c-0.9,0.5-1.2,1.3-0.7,2l-69.5,40.1v50.7l-16.9,9.8v55.1l-58,33.5l-9-5.2
			l44.7-25.8v-30.2l-0.2-0.1L418.4,101V90.8l28.8-16.6c1.3,0.5,2.8,0.5,4.1-0.2c0.7-0.2,1.1-1,0.8-1.7c-0.1-0.4-0.5-0.7-0.8-0.8
			c-1.4-0.7-3.1-0.7-4.5,0c-1.1,0.7-1.2,1.7-0.3,2.4l-28.8,16.6v11.1l0.2,0.1l50.9,29.4v29.4l-33.8,19.5v-12.6l15.5-8.9
			c1.3,0.5,2.8,0.5,4.1-0.2c0.7-0.2,1.1-1,0.8-1.7c-0.1-0.4-0.5-0.7-0.8-0.8c-1.4-0.7-3.1-0.7-4.5,0c-1.1,0.6-1.2,1.6-0.3,2.4
			l-15.5,8.9v13.4l-10.2,5.9l-12.1-7v-21.9l22.8-13.2v-15.1l-0.2-0.1l-48-27.7c0.9-0.7,0.8-1.7-0.3-2.4c-1.4-0.7-3.1-0.7-4.5,0
			c-0.7,0.2-1.1,1-0.8,1.7c0.1,0.4,0.5,0.7,0.8,0.8c1.3,0.6,2.8,0.7,4.1,0.2l48.2,27.8v14.3l-22.1,12.8v-15.1l-0.2-0.1l-29.4-17
			c0.9-0.7,0.8-1.7-0.3-2.4c-1.4-0.7-3.1-0.7-4.5,0c-0.7,0.2-1.1,1-0.8,1.7c0.1,0.4,0.5,0.7,0.8,0.8c1.3,0.6,2.8,0.7,4.1,0.2
			l29.5,17.1v37l-8.5-4.9l-14,8.1l-12.7-7.2v-17.8l-0.2-0.1l-33.5-19.3v-16.8c0.7,0,1.3-0.2,1.9-0.5c0.7-0.2,1.1-1,0.8-1.7
			c-0.1-0.4-0.5-0.7-0.8-0.8c-1.4-0.7-3.1-0.7-4.5,0c-0.7,0.2-1.1,1-0.8,1.7c0.1,0.4,0.5,0.7,0.8,0.8c0.6,0.3,1.2,0.5,1.9,0.5v17.2
			l0.2,0.1l33.5,19.3v17l-54.5-31.5v-33.4l29.6-17.1h27.1h0.1l46.5-26.9c1.3,0.5,2.8,0.5,4.1-0.2c0.7-0.2,1.1-1,0.8-1.7
			c-0.1-0.4-0.5-0.7-0.8-0.8c-1.4-0.7-3.1-0.7-4.5,0c-1.1,0.7-1.2,1.6-0.3,2.4l-46.1,26.6h-25.7l85.5-49.4c1.3,0.5,2.8,0.5,4.1-0.2
			c0.7-0.2,1.1-1,0.8-1.7c-0.1-0.4-0.5-0.7-0.8-0.8c-1.4-0.7-3.1-0.7-4.5,0c-1.1,0.7-1.2,1.7-0.3,2.4L320,108.9v34.2l0.2,0.1
			l67.8,39.1l-13.6,7.9l-115.7-66.8V83.6l-0.2-0.1l-39.3-22.7c0.9-0.7,0.8-1.7-0.3-2.4c-1.4-0.7-3.1-0.7-4.5,0
			c-0.7,0.2-1.1,1-0.8,1.7c0.1,0.4,0.5,0.7,0.8,0.8c1.3,0.6,2.8,0.7,4.1,0.2L258,84v39.8l0.2,0.1l115.5,66.7l-13,7.5L246.3,132
			h-68.2l-42.6-24.6V69.6c0.4-0.1,0.8-0.2,1.2-0.4c0.7-0.2,1.1-1,0.8-1.7c-0.1-0.4-0.5-0.7-0.8-0.8c-1.4-0.7-3.1-0.7-4.5,0
			c-0.7,0.2-1.1,1-0.8,1.7c0.1,0.4,0.5,0.7,0.8,0.8c0.8,0.4,1.7,0.6,2.6,0.5v38.1l0.2,0.1l43,24.8h68.2l96.5,55.7h-19.5l-33-19
			h-25.4h-0.1l-35.2,20.3c-1.3-0.5-2.8-0.5-4.1,0.2c-0.7,0.2-1.1,1-0.8,1.7c0.1,0.4,0.5,0.7,0.8,0.8c1.4,0.7,3.1,0.7,4.5,0
			c1.1-0.6,1.2-1.6,0.3-2.4l34.8-20.1h25l33,19h20.8l16.1,9.3l-34.6,20l-9.9-5.7v-14.9l-25-14.4c0.9-0.7,0.8-1.7-0.3-2.4
			c-1.4-0.7-3.1-0.7-4.5,0c-0.7,0.2-1.1,1-0.8,1.7c0.1,0.4,0.5,0.7,0.8,0.8c1.3,0.6,2.8,0.7,4.1,0.2l25,14.4v14.1L288,197h-12.6
			h-0.1l-15.1,8.7c-1.3-0.5-2.8-0.5-4.1,0.2c-0.7,0.2-1.1,1-0.8,1.7c0.1,0.4,0.5,0.7,0.8,0.8c1.4,0.7,3.1,0.7,4.5,0
			c1.1-0.6,1.2-1.6,0.3-2.4l14.6-8.4h12.3l36.7,21.2l-6.7,3.9l21.3,12.3l-10,5.8h-15l-10.8-6.2c0.9-0.7,0.7-1.7-0.4-2.3
			c-1.4-0.7-3.1-0.7-4.5,0c-0.7,0.2-1.1,1-0.8,1.7c0.1,0.4,0.5,0.7,0.8,0.8c1.3,0.7,2.8,0.7,4.1,0.2l11.3,6.6h14l-25.4,14.7
			l-59.8-34.5h-43h-0.1l-24.2,14c-1.3-0.5-2.8-0.5-4.1,0.2c-0.7,0.2-1.1,1-0.8,1.7c0.1,0.4,0.5,0.7,0.8,0.8c1.4,0.7,3.1,0.7,4.5,0
			c1.1-0.6,1.2-1.6,0.3-2.4l23.8-13.7h42.7l46.1,26.7h-19.8l-19.3-11.1c0.9-0.7,0.8-1.7-0.3-2.4c-1.4-0.7-3.1-0.7-4.5,0
			c-0.7,0.2-1.1,1-0.8,1.7c0.1,0.4,0.5,0.7,0.8,0.8c1.3,0.6,2.8,0.7,4.1,0.2l19.8,11.4h21.2l11.9,6.9l-30.4,17.5h-97.1L99,230.6
			c0.9-0.7,0.8-1.7-0.3-2.4c-1.4-0.7-3.1-0.7-4.5,0c-0.7,0.2-1.1,1-0.8,1.7c0.1,0.4,0.5,0.7,0.8,0.8c1.3,0.6,2.8,0.7,4.1,0.2
			l75.9,43.8h96l-12,7h-71.9h-0.1l-35.4,20.5c-1.3-0.5-2.8-0.5-4.1,0.2c-0.7,0.2-1.1,1-0.8,1.7c0.1,0.4,0.5,0.7,0.8,0.8
			c1.4,0.7,3.1,0.7,4.5,0c1.1-0.6,1.2-1.6,0.3-2.4l35-20.2h71.9h0.1l81.4-47l9,5.2l-85.6,49.4h-62.6h-0.1L125,333.8H20.3L0,322.1
			v0.8l20.1,11.6h105.2h0.1l47.5-27.4v16.2l-31.3,18.1c-1.3-0.5-2.8-0.5-4.1,0.2c-0.7,0.2-1.1,1-0.8,1.7c0.1,0.4,0.5,0.7,0.8,0.8
			c1.4,0.7,3.1,0.7,4.5,0c1.1-0.6,1.2-1.6,0.3-2.4l31.3-18.1v-17h-0.2l27.6-16h62.6h0.1l86-49.7l10.3,5.9L193,343.4v17.4h0.7v-17
			l167-96.4l12.7,7.3l-86.1,49.7v8.9l-15.3,8.8v20.5l-29.6,17.1c-1.3-0.5-2.8-0.5-4.1,0.2c-0.4,0.2-0.7,0.5-0.9,0.9h6.2
			c-0.1-0.3-0.3-0.5-0.5-0.7l29.5-17.1v-20.4l14.6-8.4v32.7l8.6,5l-15.5,8.9h1.4l14.8-8.5l14.8,8.5h1.4l-24.8-14.3v-41.6l86.1-49.7
			l11.5,6.7L324.6,297c-1.3-0.5-2.8-0.5-4.1,0.2c-0.7,0.2-1.1,1-0.8,1.7c0.1,0.4,0.5,0.7,0.8,0.8c1.4,0.7,3.1,0.7,4.5,0
			c1.1-0.6,1.2-1.6,0.3-2.4l61-35.2l11.1,6.4l-72.9,42.1h-19.8c-0.2-0.4-0.5-0.7-0.9-0.9c-1.4-0.7-3.1-0.7-4.5,0
			c-0.7,0.2-1.1,1-0.8,1.7c0.1,0.4,0.5,0.7,0.8,0.8c1.4,0.7,3.1,0.7,4.5,0c0.4-0.2,0.7-0.5,0.9-0.9h20h0.1l73.3-42.3l4.5,2.6l3.5-2
			l17.5,10.1v14l-14.4,8.3l0,0h-22.6h-0.1l-24.9,14.4c-1.3-0.5-2.8-0.5-4.1,0.2c-0.7,0.2-1.1,1-0.8,1.7c0.1,0.4,0.5,0.7,0.8,0.8
			c1.4,0.7,3.1,0.7,4.5,0c1.1-0.6,1.2-1.6,0.3-2.4l24.4-14.1H408l-42.4,24.5c-1.3-0.6-2.9-0.5-4.2,0.1c-0.7,0.2-1.1,1-0.8,1.7
			c0.1,0.4,0.5,0.7,0.8,0.8c1.4,0.7,3.1,0.7,4.5,0c1.1-0.6,1.2-1.6,0.4-2.3l52.9-30.5v6.8l-31.5,18.2v12.8l-25.6,14.8
			c-1.3-0.5-2.8-0.5-4.1,0.2c-0.7,0.2-1.1,1-0.8,1.7c0.1,0.4,0.5,0.7,0.8,0.8c1.4,0.7,3.1,0.7,4.5,0c1.1-0.6,1.2-1.6,0.3-2.4
			l25.6-14.8v-12.8l31.5-18.2v-7.6l4.4-2.5v-14.9l-17.5-10.1l11.5-6.6l35.9,20.8V307l-24.4,14.1c-1.3-0.6-2.9-0.5-4.2,0.1
			c-0.7,0.2-1.1,1-0.8,1.7c0.1,0.4,0.5,0.7,0.8,0.8c1.4,0.7,3.1,0.7,4.5,0c1.1-0.6,1.2-1.6,0.4-2.3l23.7-13.7v19.1l-18.7,10.8v23.1
			h0.7v-22.8l18-10.4v33.1h0.8V283l-36-20.8l12.9-7.4l47,27.1v64.6l22.6,13v1.3h0.7v-1.7l-22.6-13v-64.6l-47-27.1l9.5-5.5l63.4,36.6
			v55.1l35,20.2h1.4l-35.8-20.6V285l-63.4-36.6l15.5-8.9l105.5,60.9v27.4l36.2,20.9v-0.8l-35.4-20.5V300l-59.3-34.3h46.9l47.9,27.6
			v-0.8L552.3,265H504l-44.9-25.9l18-10.4l38.6,22.3h62l22.3,12.9v-0.8l-4.9-2.8h4.9v-0.7h-6.1l-16-9.2h-62l-10.8-6.2h26.4h0.1
			l13.2-7.6h55.1l0.2,0.1v-0.8h-54l14.9-8.6c1.3,0.5,2.8,0.5,4.1-0.2c0.7-0.2,1.1-1,0.8-1.7c-0.1-0.4-0.5-0.7-0.8-0.8
			c-1.4-0.7-3.1-0.7-4.5,0c-1.1,0.6-1.2,1.6-0.3,2.4l-28.9,16.7h-27.4l-26.1-15l9.6-5.6l-6.2-3.6h18l23.5,13.6
			c-0.9,0.7-0.8,1.7,0.3,2.4c1.4,0.7,3.1,0.7,4.5,0c0.7-0.2,1.1-1,0.8-1.7c-0.1-0.4-0.5-0.7-0.8-0.8c-1.3-0.6-2.8-0.7-4.1-0.2
			l-24.1-13.9H480l-13.2-7.6l8.1-4.7h14.4l12.6-7.3h9.4l21.3,12.3c-1,0.7-0.9,1.8,0.3,2.4c1.4,0.7,3.1,0.7,4.5,0
			c0.7-0.2,1.1-1,0.8-1.7c-0.1-0.4-0.5-0.7-0.8-0.8c-1.2-0.6-2.7-0.7-4-0.2l-21.8-12.6h-9.8l-12.6,7.3h-13l25.9-15h14l29.2,16.8H600
			v-0.7h-54.6l-29.2-16.8h-14.4h-0.1l-35.7,20.6l-9.4-5.4l40.3-23.3h28.4l23.5,13.5h51v-0.7h-50.9l-22.2-12.8H600V181H496.9h-0.1
			L456,204.6l-10.6-6.1l56.3-32.5H600v-0.7h-71.7l71.7-41.4v-0.8l-73.1,42.2h-24.8l53.3-30.8v-6.8l25.5-14.7
			c1.3,0.5,2.8,0.5,4.1-0.2c0.7-0.2,1.1-1,0.8-1.7c-0.1-0.4-0.5-0.7-0.8-0.8c-1.4-0.7-3.1-0.7-4.5,0c-1.1,0.7-1.2,1.7-0.3,2.4
			l-13.9,8V102L600,82.6v-0.8l-34.4,19.8V121l-10.9,6.3v6.8l-53.7,31l0.2,0.3L444.7,198l-10.3-5.9l58-33.5v-55L600,41.4v-0.8
			l-90.6,52.3V43.1L578.7,3l0.1,0.1c1.4,0.7,3.1,0.7,4.5,0c0.7-0.3,1.1-1.1,0.8-1.8C584,1,583.7,0.7,583.4,0.5z M486,222.7
			l-83.3,48.1l-83.3-48.1l83.3-48.1L486,222.7z"/>
		<path class="st2" d="M600,86.8l-14.8,8.6v27.6l-131.6,76l-10-5.8l67.9-39.2v-7l12-6.9v-16.1l23.3-13.5c1,0.4,2.2,0.4,3.2-0.2
			c0.6-0.2,0.8-0.9,0.6-1.4c-0.1-0.3-0.3-0.5-0.6-0.6c-1.1-0.6-2.4-0.6-3.5,0c-0.9,0.5-1,1.3-0.3,1.9l-23.3,13.5v16.1l-11.5,6.6
			v-25.8l-0.1-0.1l-6.6-3.8l39.8-23V67.7l28.3-16.3c1,0.4,2.2,0.4,3.2-0.2c0.6-0.2,0.8-0.9,0.6-1.4c-0.1-0.3-0.3-0.5-0.6-0.6
			c-1.1-0.6-2.4-0.6-3.5,0c-0.9,0.5-1,1.3-0.3,1.9l-28.2,16.3v25.8l-39.8,23l-64.7-37.4V49.9c0.5,0,1-0.2,1.5-0.4
			c0.6-0.2,0.8-0.9,0.6-1.4c-0.1-0.3-0.3-0.5-0.6-0.6c-1.1-0.6-2.4-0.6-3.5,0c-0.6,0.2-0.8,0.9-0.6,1.4c0.1,0.3,0.3,0.5,0.6,0.6
			c0.5,0.2,1,0.4,1.5,0.4v29.2l0.1,0.1l38.9,22.5h-28.4l-22.9-13.2c0.7-0.6,0.6-1.4-0.3-1.9c-1.1-0.6-2.4-0.6-3.5,0
			c-0.6,0.2-0.8,0.9-0.6,1.4c0.1,0.3,0.3,0.5,0.6,0.6c1,0.5,2.2,0.6,3.2,0.2l23.3,13.5h29.5l32,18.5v32.8L443,192.8l-9.1-5.3
			l48-27.7c1,0.4,2.2,0.4,3.2-0.1c0.6-0.2,0.8-0.9,0.6-1.4c-0.1-0.3-0.3-0.5-0.6-0.6c-1.1-0.6-2.4-0.6-3.5,0c-0.9,0.5-1,1.3-0.3,1.9
			l-48,27.7l-8.8-5.1l57.5-33.2h15.6c0.1,0.3,0.4,0.6,0.7,0.7c1.1,0.6,2.4,0.6,3.5,0c0.6-0.2,0.8-0.9,0.6-1.4
			c-0.1-0.3-0.3-0.5-0.6-0.6c-1.1-0.6-2.4-0.6-3.5,0c-0.3,0.2-0.6,0.4-0.7,0.7h-15.7h-0.1L424,181.8l-3.5-2l-0.1,0.1l-2.6,1.5
			l-13.7-8v-11.1l11.4-6.6l0,0h17.9l19.6-11.4c1,0.4,2.2,0.4,3.2-0.1c0.6-0.2,0.8-0.9,0.6-1.4c-0.1-0.3-0.3-0.5-0.6-0.6
			c-1.1-0.6-2.4-0.6-3.5,0c-0.9,0.5-1,1.3-0.3,1.9L433,155.2h-16.7l33.4-19.3c1.1,0.4,2.3,0.4,3.3-0.1c0.6-0.2,0.8-0.9,0.6-1.4
			c-0.1-0.3-0.3-0.5-0.6-0.6c-1.1-0.6-2.4-0.6-3.5,0c-0.9,0.5-1,1.3-0.3,1.8l-41.7,24.1v-5.3l24.8-14.4v-10.1l20.2-11.7
			c1,0.4,2.2,0.4,3.2-0.2c0.6-0.2,0.8-0.9,0.6-1.4c-0.1-0.3-0.3-0.5-0.6-0.6c-1.1-0.6-2.4-0.6-3.5,0c-0.9,0.5-1,1.3-0.3,1.9
			l-20.2,11.7v10.1L406.9,154v6l-3.5,2v11.7l13.8,7.9l-9,5.2l-28.4-16.4v-18.6l19.2-11.1c1.1,0.4,2.3,0.4,3.3-0.1
			c0.6-0.2,0.8-0.9,0.6-1.4c-0.1-0.3-0.3-0.5-0.6-0.6c-1.1-0.6-2.4-0.6-3.5,0c-0.9,0.5-1,1.3-0.3,1.8l-18.6,10.7v-15l14.8-8.5V99.4
			c0.5,0,1-0.2,1.5-0.4c0.6-0.2,0.8-0.9,0.6-1.4c-0.1-0.3-0.3-0.5-0.6-0.6c-1.1-0.6-2.4-0.6-3.5,0c-0.6,0.2-0.8,0.9-0.6,1.4
			c0.1,0.3,0.3,0.5,0.6,0.6c0.5,0.2,1,0.4,1.5,0.4v27.9l-14.2,8.2V85.8h-0.6v85.1l28.3,16.4l-10.2,5.8l-37-21.4v-50.9l-17.8-10.3
			V91.3l-15.7-9.1c0.7-0.6,0.6-1.4-0.3-1.9c-1.1-0.6-2.4-0.6-3.5,0c-0.6,0.2-0.8,0.9-0.6,1.4c0.1,0.3,0.3,0.5,0.6,0.6
			c1,0.5,2.2,0.6,3.2,0.2l15.7,9.1v19.2l17.8,10.3V172l37,21.4l-7.5,4.4l-50-28.9v-43.5l-0.1-0.1L295,99.8c0.7-0.6,0.6-1.4-0.3-1.9
			c-1.1-0.6-2.4-0.6-3.5,0c-0.6,0.2-0.8,0.9-0.6,1.4c0.1,0.3,0.3,0.5,0.6,0.6c1,0.5,2.2,0.6,3.2,0.2l44.4,25.6v43.4l0.1,0.1
			l49.8,28.8l-12.2,7l-83.1-48v-21.5l-0.1-0.1l-69.6-40.2c0.7-0.6,0.6-1.4-0.3-1.9c-1.1-0.6-2.4-0.6-3.5,0c-0.6,0.2-0.8,0.9-0.6,1.4
			c0.1,0.3,0.3,0.5,0.6,0.6c1,0.5,2.2,0.6,3.2,0.2l69.8,40.3v21.6l0.1,0.1l46.6,26.9h-37l-42.8-24.7c0.7-0.6,0.6-1.4-0.3-1.9
			c-1.1-0.6-2.4-0.6-3.5,0c-0.6,0.2-0.8,0.9-0.6,1.4c0.1,0.3,0.3,0.5,0.6,0.6c1,0.5,2.2,0.6,3.2,0.1l43.2,25h38.1l35.4,20.5
			l-14.2,8.2L331.4,196h-48.9l-55.6-32.1h-30.8l-12.6-7.3c0.7-0.6,0.6-1.4-0.3-1.9c-1.1-0.6-2.4-0.6-3.5,0c-0.6,0.2-0.8,0.9-0.6,1.4
			c0.1,0.3,0.3,0.5,0.6,0.6c1,0.5,2.2,0.6,3.3,0.2l13,7.5h30.8l42,24.3h-36.3L215,178.6c0.7-0.6,0.6-1.4-0.3-1.9
			c-1.1-0.6-2.4-0.6-3.5,0c-0.6,0.2-0.8,0.9-0.6,1.4c0.1,0.3,0.3,0.5,0.6,0.6c1,0.5,2.2,0.6,3.2,0.1l17.9,10.3h37.4l12.6,7.3h48.9
			l8.5,4.9H319h-0.1l-10.4,6h-43.5l-12.3-7.1h-24.6c-0.1-0.3-0.4-0.6-0.7-0.7c-1.1-0.6-2.4-0.6-3.5,0c-0.6,0.2-0.8,0.9-0.6,1.4
			c0.1,0.3,0.3,0.5,0.6,0.6c1.1,0.6,2.4,0.6,3.5,0c0.3-0.2,0.6-0.4,0.7-0.7h24.4l12.2,7.1h42.6l-11.7,6.8c-1-0.4-2.2-0.4-3.2,0.1
			c-0.6,0.2-0.8,0.9-0.6,1.4c0.1,0.3,0.3,0.5,0.6,0.6c1.1,0.6,2.4,0.6,3.5,0c0.9-0.5,1-1.3,0.3-1.9l22.8-13.1h21.6l20.5,11.9
			l-7.6,4.4l0.4,0.2l4.5,2.6h-14.2l-18.6-10.5c0.7-0.6,0.6-1.4-0.3-1.9c-1.1-0.6-2.4-0.6-3.5,0c-0.6,0.2-0.8,0.9-0.6,1.4
			c0.1,0.3,0.3,0.5,0.6,0.6c1,0.5,2.2,0.6,3.2,0.1l19,11h15.3l10.4,6l-6.4,3.7h-11.4h-0.1l-9.9,5.7h-7.4l-16.8-9.7
			c0.8-0.6,0.7-1.4-0.2-1.9c-1.1-0.6-2.4-0.6-3.5,0c-0.6,0.2-0.8,0.9-0.6,1.4c0.1,0.3,0.3,0.5,0.6,0.6c1,0.5,2.1,0.6,3.2,0.2
			l17.2,9.9h7.7h0.1l9.9-5.7h10.2l-20.4,11.8h-11l-23-13.3h-69.3l-43-24.8c0.7-0.6,0.7-1.4-0.2-1.9c-1.1-0.6-2.4-0.6-3.5,0
			c-0.6,0.2-0.8,0.9-0.6,1.4c0.1,0.3,0.3,0.5,0.6,0.6c1,0.5,2.1,0.6,3.2,0.2l43.4,25.1H308l23,13.3h11.3h0.1l28.1-16.3l7.4,4.3
			l-31.8,18.3h-22.4l-18.5-10.7h-47.5c-0.1-0.3-0.4-0.6-0.7-0.7c-1.1-0.6-2.4-0.6-3.5,0c-0.6,0.2-0.8,0.9-0.6,1.4
			c0.1,0.3,0.3,0.5,0.6,0.6c1.1,0.6,2.4,0.6,3.5,0c0.3-0.2,0.5-0.4,0.7-0.7H305l17.5,10.1h-66.9h-0.1l-63.7,36.8
			c-1-0.4-2.2-0.4-3.2,0.1c-0.6,0.2-0.8,0.9-0.6,1.4c0.1,0.3,0.3,0.5,0.6,0.6c1.1,0.6,2.4,0.6,3.5,0c0.9-0.5,1-1.3,0.3-1.9
			l63.4-36.6h90.4h0.1l32.1-18.6l8.4,4.8L342.5,263h-78h-0.1l-68.3,39.5h-79.6L70,275.7c0.7-0.6,0.6-1.4-0.3-1.9
			c-1.1-0.6-2.4-0.6-3.5,0c-0.6,0.2-0.8,0.9-0.6,1.4c0.1,0.3,0.3,0.5,0.6,0.6c1,0.5,2.2,0.6,3.2,0.1l46.8,27h79.9h0.1l68.3-39.5
			h56.8L238,311.7v12.7l-33.3,19.2c-1-0.4-2.2-0.4-3.2,0.1c-0.6,0.2-0.8,0.9-0.6,1.4c0.1,0.3,0.3,0.5,0.6,0.6c1.1,0.6,2.4,0.6,3.5,0
			c0.9-0.5,1-1.3,0.3-1.9l33.3-19.2v-12.6l84-48.5h19.5l-42,24.3v5.4L280,304.8c-1-0.4-2.2-0.4-3.2,0.1c-0.6,0.2-0.8,0.9-0.6,1.4
			c0.1,0.3,0.3,0.5,0.6,0.6c1.1,0.6,2.4,0.6,3.5,0c0.9-0.5,1-1.3,0.3-1.9l11-6.3v14.6l-63.2,36.5c-1-0.4-2.2-0.4-3.2,0.1
			c-0.6,0.2-0.8,0.9-0.6,1.4c0.1,0.3,0.3,0.5,0.6,0.6c1.1,0.6,2.4,0.6,3.5,0c0.9-0.5,1-1.3,0.3-1.9l63.2-36.4v-15.3l8.6-5v-5.4
			l42.4-24.4l-0.1-0.2l44.5-25.7l8.1,4.7l-45.7,26.4v43.4l-84.1,48.6h1.1l69.6-40.2v39.3l-1.6,0.9h1.1l1-0.6v-40l13.4-7.7v-43.4
			l45.8-26.4l7.1,4.1l-35.3,20.4V291l0.1,0.1l40.1,23.1v8.1l-22.7,13.1c-1-0.4-2.2-0.4-3.2,0.1c-0.6,0.2-0.8,0.9-0.6,1.4
			c0.1,0.3,0.3,0.5,0.6,0.6c1.1,0.6,2.4,0.6,3.5,0c0.9-0.5,1-1.3,0.3-1.9l22.7-13.1v-8.7l-0.1-0.1l-40.1-23.1v-23.2l26.6-15.4v9.9
			l-12.2,7c-1-0.4-2.2-0.4-3.2,0.1c-0.6,0.2-0.8,0.9-0.6,1.4c0.1,0.3,0.3,0.5,0.6,0.6c1.1,0.6,2.4,0.6,3.5,0c0.9-0.5,1-1.3,0.3-1.9
			l12.2-7v-10.5l8.1-4.6l9.5,5.5V270l-18,10.4v12l0.1,0.1l37.8,21.9c-0.7,0.6-0.6,1.4,0.3,1.9c1.1,0.6,2.4,0.6,3.5,0
			c0.6-0.2,0.8-0.9,0.6-1.4c-0.1-0.3-0.3-0.5-0.6-0.6c-1-0.5-2.2-0.6-3.2-0.1l-38-21.9v-11.3l17.4-10v11.9l23.3,13.4
			c-0.7,0.6-0.6,1.4,0.3,1.9c1.1,0.6,2.4,0.6,3.5,0c0.6-0.2,0.8-0.9,0.6-1.4c-0.1-0.3-0.3-0.5-0.6-0.6c-1-0.5-2.2-0.6-3.2-0.1
			l-23.3-13.5V253l6.7,3.9l0.1-0.1l10.9-6.3l10,5.8v14l26.5,15.3v13.2c-0.5,0-1,0.2-1.5,0.4c-0.6,0.2-0.8,0.9-0.6,1.4
			c0.1,0.3,0.3,0.5,0.6,0.6c1.1,0.6,2.4,0.6,3.5,0c0.6-0.2,0.8-0.9,0.6-1.4c-0.1-0.3-0.3-0.5-0.6-0.6c-0.5-0.2-1-0.4-1.5-0.4v-13.5
			L442,270v-13.4l43,24.8v26.3l-23.3,13.5h-21.4h-0.1l-36.7,21.2c-1-0.4-2.2-0.4-3.2,0.1c-0.6,0.2-0.8,0.9-0.6,1.4
			c0.1,0.3,0.3,0.5,0.6,0.6c1.1,0.6,2.4,0.6,3.5,0c0.9-0.5,1-1.3,0.3-1.9l36.4-21h20.3l-67.4,38.9c-1-0.4-2.2-0.4-3.2,0.1l0,0h4.1
			l91.4-52.7v-26.9l-0.1-0.1l-53.4-30.8l10.7-6.2l91.1,52.6V328l31.1,18c-0.7,0.6-0.6,1.4,0.3,1.9c1.1,0.6,2.4,0.6,3.5,0
			c0.6-0.2,0.8-0.9,0.6-1.4c-0.1-0.3-0.3-0.5-0.6-0.6c-1-0.5-2.2-0.6-3.2-0.1l-31.1-18v-31.4l-0.1-0.1l-91-52.5l10.2-5.9l90.1,52
			h53.8l2.5,1.5v-0.6l-2.4-1.4h-53.8l-76.1-43.9h15.3l26,15h20h0.1l27.7-16c1,0.4,2.2,0.4,3.2-0.1c0.6-0.2,0.8-0.9,0.6-1.4
			c-0.1-0.3-0.3-0.5-0.6-0.6c-1.1-0.6-2.4-0.6-3.5,0c-0.9,0.5-1,1.3-0.3,1.9l-27.4,15.8h-19.7l-26-15h-16.4l-12.7-7.3l27.3-15.8
			l7.8,4.5v11.7l19.7,11.4c-0.7,0.6-0.6,1.4,0.3,1.9c1.1,0.6,2.4,0.6,3.5,0c0.6-0.2,0.8-0.9,0.6-1.4c-0.1-0.3-0.3-0.5-0.6-0.6
			c-1-0.5-2.2-0.6-3.2-0.1l-19.7-11.4v-11.1l21,12.1h10h0.1l11.9-6.9c1,0.4,2.2,0.4,3.2-0.1c0.6-0.2,0.8-0.9,0.6-1.4
			c-0.1-0.3-0.3-0.5-0.6-0.6c-1.1-0.6-2.4-0.6-3.5,0c-0.9,0.5-1,1.3-0.3,1.9l-11.5,6.5H511l-29-16.7l5.3-3l-0.4-0.2l-16.4-9.4
			l7.9-4.5h11.9l8.5,4.9c-0.7,0.6-0.6,1.3,0.3,1.8c1.1,0.6,2.4,0.6,3.5,0c0.6-0.2,0.8-0.9,0.6-1.4c-0.1-0.3-0.3-0.5-0.6-0.6
			c-1-0.5-2.2-0.6-3.3-0.1l-8.9-5.1h-11l20-11.6l47.2,27.2h33.9h0.1l19.1-11c0.1,0,0.3,0.1,0.4,0.1v-2.6c-0.2,0.1-0.5,0.2-0.7,0.3
			c-0.9,0.5-1,1.3-0.3,1.9l-18.8,10.8h-33.6l-36.4-21h15.6l15.2,8.8c-0.7,0.6-0.6,1.4,0.3,1.9c1.1,0.6,2.4,0.6,3.5,0
			c0.6-0.2,0.8-0.9,0.6-1.4c-0.1-0.3-0.3-0.5-0.6-0.6c-1-0.5-2.2-0.6-3.2-0.1L526,197h-16.7l-9.4-5.4l23.9-13.8H600v-0.6h-75.2
			l9.5-5.5H591h0.1l9-5.2v-0.6l-9.2,5.3h-56.7h-0.1l-64.2,37.1l-7.1-4.1l67.5-39h49.3h0.1l20.3-11.7v-0.6l-20.5,11.9h-49.3h-0.1
			l-67.8,39.2l-8.1-4.7l131.6-76V95.6l14.2-8.2V86.8z M486.1,218.3l-65.7,37.9l-65.7-37.9l65.7-37.9L486.1,218.3z"/>
	</g>
</g>
</svg>
